<svg xmlns="http://www.w3.org/2000/svg" width="34" height="34" viewBox="0 0 34 34">
  <metadata><?xpacket begin="﻿" id="W5M0MpCehiHzreSzNTczkc9d"?>
<x:xmpmeta xmlns:x="adobe:ns:meta/" x:xmptk="Adobe XMP Core 5.6-c138 79.159824, 2016/09/14-01:09:01        ">
   <rdf:RDF xmlns:rdf="http://www.w3.org/1999/02/22-rdf-syntax-ns#">
      <rdf:Description rdf:about=""/>
   </rdf:RDF>
</x:xmpmeta>
                                                                                                    
                                                                                                    
                                                                                                    
                                                                                                    
                                                                                                    
                                                                                                    
                                                                                                    
                                                                                                    
                                                                                                    
                                                                                                    
                                                                                                    
                                                                                                    
                                                                                                    
                                                                                                    
                                                                                                    
                                                                                                    
                                                                                                    
                                                                                                    
                                                                                                    
                                                                                                    
                           
<?xpacket end="w"?></metadata>
<defs>
    <style>
      .cls-1 {
        fill: #5a5f6d;
        fill-rule: evenodd;
      }
    </style>
  </defs>
  <path id="Close" class="cls-1" d="M1298.02,169.98A17,17,0,1,0,1303,182,16.879,16.879,0,0,0,1298.02,169.98Zm-1.37,22.674a15.068,15.068,0,1,1,0-21.308A14.953,14.953,0,0,1,1296.65,192.654Zm-3.16-18.145a0.967,0.967,0,0,0-1.37,0l-6.12,6.124-6.12-6.124a0.967,0.967,0,0,0-1.37,1.366l6.12,6.125-6.12,6.124a0.964,0.964,0,1,0,1.36,1.367l6.12-6.124,6.13,6.124a0.951,0.951,0,0,0,.68.286,0.939,0.939,0,0,0,.68-0.286,0.962,0.962,0,0,0,0-1.367L1287.37,182l6.12-6.125A0.961,0.961,0,0,0,1293.49,174.509Z" transform="translate(-1269 -165)"/>
</svg>
