<svg xmlns="http://www.w3.org/2000/svg" viewBox="0 0 544.53 204.58"><defs><style>.cls-1,.cls-2,.cls-3{fill:#fff;}.cls-2{font-size:88.57px;letter-spacing:0.01em;}.cls-2,.cls-3{font-family:Montserrat-Medium, Montserrat;}.cls-3{font-size:30.63px;letter-spacing:0.5em;}</style></defs><title>Asset 50</title><g id="Layer_2" data-name="Layer 2"><g id="Layer_13" data-name="Layer 13"><rect class="cls-1" x="50.98" y="67.09" width="23.97" height="128.78"/><rect class="cls-1" x="141.55" y="67.09" width="23.97" height="128.78"/><rect class="cls-1" x="-6.05" y="31.71" width="131.61" height="21.23" rx="4.35" ry="4.35" transform="translate(-13.35 38.16) rotate(-32.05)"/><rect class="cls-1" x="91.44" y="31.68" width="131.73" height="21.23" rx="4.35" ry="4.35" transform="translate(268.19 161.61) rotate(-147.95)"/><text class="cls-2" transform="translate(184.61 161.48)">HOME</text><text class="cls-3" transform="translate(189.94 196.43)">HEALTH PRO</text><rect class="cls-1" x="98.37" y="101.95" width="19.65" height="56.27"/><rect class="cls-1" x="98.37" y="101.95" width="19.65" height="56.27" transform="translate(238.28 21.89) rotate(90)"/><path class="cls-1" d="M122.86,55.1a9.37,9.37,0,0,0-7-3A8.77,8.77,0,0,0,110.41,54a11.21,11.21,0,0,0-2.21,2.31A11.2,11.2,0,0,0,106,54a8.77,8.77,0,0,0-5.48-1.89,9.37,9.37,0,0,0-7,3,10.9,10.9,0,0,0-2.76,7.44c0,2.95,1.1,5.65,3.46,8.49a73.71,73.71,0,0,0,8.65,8.12c1.2,1,2.56,2.18,4,3.41a2,2,0,0,0,2.69,0c1.41-1.23,2.77-2.39,4-3.42A73.68,73.68,0,0,0,122.16,71c2.36-2.85,3.46-5.54,3.46-8.49A10.89,10.89,0,0,0,122.86,55.1Z"/></g></g></svg>