<svg xmlns="http://www.w3.org/2000/svg" viewBox="0 0 271 310" width="271" height="310">
	<style>
		tspan { white-space:pre }
		.shp0 { fill: #e2574c } 
		.shp1 { fill: #b53629 } 
		.shp2 { fill: #ffffff } 
	</style>
	<g id="Layer">
		<path id="Layer" class="shp0" d="M10.62 -14.91L185.81 -14.91L278.67 77.59L278.67 294.38C278.67 305.77 269.43 315 258.05 315L10.62 315C-0.76 315 -10 305.77 -10 294.38L-10 5.71C-10 -5.68 -0.76 -14.91 10.62 -14.91Z" />
		<path id="Layer" class="shp1" d="M280.66 76.98L213.29 76.98C202.62 76.98 193.96 68.32 193.96 57.65L193.96 -9.81L280.66 76.98Z" />
		<path id="Layer" fill-rule="evenodd" class="shp2" d="M185.19 146.54L185.19 163.45L196.35 163.45C199.81 163.45 201.54 166.18 201.54 168.94C201.54 171.75 199.81 174.58 196.35 174.58L185.19 174.58L185.19 187.02C185.19 191.06 182.88 193.3 179.79 193.3C176.68 193.3 174.38 191.06 174.38 187.02L174.38 141.7C174.38 138.41 176.39 135.42 179.99 135.42L198.43 135.42C201.6 135.42 203.26 138.16 203.26 140.99C203.26 143.72 201.67 146.54 198.43 146.54C198.43 146.54 185.19 146.54 185.19 146.54ZM164.75 165.09C164.75 182.11 153.69 193.14 136.93 193.14L122.77 193.14C120.09 193.14 116.35 191.69 116.35 187.06L116.35 141.66C116.35 137.93 118.95 135.42 122.62 135.42L136.11 135.42C154.32 135.42 164.74 147.09 164.75 165.09ZM152.04 164.53C152.04 154.14 147.16 146.61 135.94 146.61L128.53 146.61L128.53 181.95L136.75 181.95C147.25 181.95 152.04 174.25 152.04 164.53ZM106.66 154.68C106.66 166.46 98.12 173.79 87.78 173.79L79.4 173.79L79.4 187.02C79.4 191.06 76.99 193.3 73.74 193.3C70.49 193.3 68.08 191.06 68.08 187.02L68.08 141.7C68.08 137.91 70.19 135.42 73.96 135.42L87.33 135.42C98.42 135.42 106.66 143.15 106.66 154.68ZM94.89 154.61C94.89 149.77 91.86 146.06 87.11 146.06L79.41 146.06L79.41 163.16L87.11 163.16C91.86 163.16 94.88 159.45 94.89 154.61Z" />
	</g>
	<g id="Layer">
	</g>
	<g id="Layer">
	</g>
	<g id="Layer">
	</g>
	<g id="Layer">
	</g>
	<g id="Layer">
	</g>
	<g id="Layer">
	</g>
	<g id="Layer">
	</g>
	<g id="Layer">
	</g>
	<g id="Layer">
	</g>
	<g id="Layer">
	</g>
	<g id="Layer">
	</g>
	<g id="Layer">
	</g>
	<g id="Layer">
	</g>
	<g id="Layer">
	</g>
	<g id="Layer">
	</g>
</svg>