<svg xmlns="http://www.w3.org/2000/svg" viewBox="0 0 345.6 439.82"><defs><style>.cls-1{fill:#fff;}</style></defs><title>Check Clinicians0</title><g id="Layer_2" data-name="Layer 2"><g id="Layer_1-2" data-name="Layer 1"><path class="cls-1" d="M227.2,50H118.4a59.81,59.81,0,0,0-59.73,59.73c0,.25,0,43.77,0,44a114.14,114.14,0,0,0,228.26-.91V109.73A59.8,59.8,0,0,0,227.2,50Zm0,166.08a59.8,59.8,0,0,0,59.73-59.73V113.24a114.14,114.14,0,0,0-228.26-.91c0,.25,0,43.77,0,44a59.81,59.81,0,0,0,59.73,59.73H227.2Zm36.27,81.77v31.67a8.5,8.5,0,0,0,5.82,8.08,45.94,45.94,0,0,1,31.51,43.55v39.17a8.73,8.73,0,0,1-8,8.81,8.53,8.53,0,0,1-9.1-8.52V381.77c0-15.67-12.26-28.94-27.93-29.4a28.83,28.83,0,0,0-29.67,28.79v39.17a8.73,8.73,0,0,1-8,8.81,8.53,8.53,0,0,1-9.1-8.52V381.15a45.94,45.94,0,0,1,31.51-43.55,8.5,8.5,0,0,0,5.82-8.08V292.77a2.48,2.48,0,0,0-4-2c-69.79,53.2-65.64,50.9-69.63,50.88-4.15,0,.61,2.67-69.65-50.88a2.47,2.47,0,0,0-4,2v48.45a8.47,8.47,0,0,0,4.88,7.7,32,32,0,1,1-26.89,0,8.54,8.54,0,0,0,4.95-7.73v-43.5a4.25,4.25,0,0,0-4.73-4.24A88,88,0,0,0,0,380.88v50.41a8.53,8.53,0,0,0,8.53,8.53H337.07a8.53,8.53,0,0,0,8.53-8.53v-50.8c0-44.89-33.9-81.15-77.36-86.87a4.25,4.25,0,0,0-4.77,4.24ZM178,318.48l45.52-34.7c4.61-3.51.72-10.9-4.73-8.93C186.7,286.38,155,285.4,127,274.9c-5.66-2.12-9.49,5.37-4.9,8.88l45.53,34.71a8.54,8.54,0,0,0,10.35,0ZM75.73,378A14.93,14.93,0,1,0,90.67,363,14.95,14.95,0,0,0,75.73,378Z"/></g></g></svg>