<?xml version="1.0"?>
<svg xmlns="http://www.w3.org/2000/svg" id="Capa_1" enable-background="new 0 0 512 512" height="512px" viewBox="0 0 512 512" width="512px"><g><g><circle cx="128" cy="264" r="25" data-original="#000000" class="active-path" data-old_color="#000000" fill="#FFFFFF"/><path d="m128 319c-18.196 0-33 14.804-33 33v25h66v-25c0-18.196-14.804-33-33-33z" data-original="#000000" class="active-path" data-old_color="#000000" fill="#FFFFFF"/><path d="m393 309c-82.159 0-149-66.841-149-149 0-13.49 1.813-26.563 5.189-39h-204.189c-24.813 0-45 20.187-45 45v260c0 24.813 20.187 45 45 45h373c24.813 0 45-20.187 45-45v-134.501c-20.883 11.162-44.713 17.501-70 17.501zm-145 4h56c8.284 0 15 6.716 15 15s-6.716 15-15 15h-56c-8.284 0-15-6.716-15-15s6.716-15 15-15zm-57 79c0 8.284-6.716 15-15 15h-96c-8.284 0-15-6.716-15-15v-40c0-19.979 9.36-37.803 23.912-49.353-9.83-9.941-15.912-23.595-15.912-38.647 0-30.327 24.673-55 55-55s55 24.673 55 55c0 15.052-6.082 28.706-15.912 38.647 14.552 11.55 23.912 29.374 23.912 49.353zm137 15h-80c-8.284 0-15-6.716-15-15s6.716-15 15-15h80c8.284 0 15 6.716 15 15s-6.716 15-15 15z" data-original="#000000" class="active-path" data-old_color="#000000" fill="#FFFFFF"/><path d="m393 41c-65.617 0-119 53.383-119 119s53.383 119 119 119 119-53.383 119-119-53.383-119-119-119zm35.523 104.603-40 48c-2.868 3.441-7.101 5.397-11.522 5.397-.575 0-1.152-.033-1.731-.1-5.028-.584-9.423-3.664-11.687-8.192l-16-32c-3.705-7.409-.701-16.42 6.708-20.124 7.409-3.707 16.419-.702 20.125 6.708l5.743 11.486 25.317-30.381c5.304-6.364 14.763-7.224 21.126-1.921 6.365 5.304 7.225 14.762 1.921 21.127z" data-original="#000000" class="active-path" data-old_color="#000000" fill="#FFFFFF"/></g></g> </svg>
