<svg xmlns="http://www.w3.org/2000/svg" width="28" height="35" viewBox="0 0 28 35">
  <defs>
    <style>
      .cls-1 {
        fill: #fff;
        fill-rule: evenodd;
      }
    </style>
  </defs>
  <path id="https:_www.flaticon.com_free-icon_android_634909_term_android_20logo_page_1_position_3" data-name="https://www.flaticon.com/free-icon/android_634909?term=android%20logo&amp;page=1&amp;position=3" class="cls-1" d="M1074.37,6395.13h-14.74a0.728,0.728,0,0,0-.74.72v11.67a3.663,3.663,0,0,0,2.95,3.57v3.72a2.21,2.21,0,0,0,4.42,0v-3.64h1.48v3.64a2.21,2.21,0,0,0,4.42,0v-3.72a3.654,3.654,0,0,0,2.95-3.57v-11.67A0.728,0.728,0,0,0,1074.37,6395.13Zm-3.51-9.25,1.24-2.86a0.726,0.726,0,0,0-.39-0.96,0.741,0.741,0,0,0-.97.38l-1.24,2.87a8.208,8.208,0,0,0-5,0l-1.24-2.87a0.741,0.741,0,0,0-.97-0.38,0.726,0.726,0,0,0-.39.96l1.24,2.86a8.028,8.028,0,0,0-4.25,7.06,0.736,0.736,0,0,0,.74.73h14.74a0.736,0.736,0,0,0,.74-0.73A8.028,8.028,0,0,0,1070.86,6385.88Zm-6.81,4.87a0.73,0.73,0,1,1,.74-0.73A0.734,0.734,0,0,1,1064.05,6390.75Zm5.9,0a0.73,0.73,0,1,1,.73-0.73A0.736,0.736,0,0,1,1069.95,6390.75Zm8.84,4.38a2.2,2.2,0,0,0-2.21,2.18v7.29a2.21,2.21,0,0,0,4.42,0v-7.29A2.2,2.2,0,0,0,1078.79,6395.13Zm-23.58,0a2.2,2.2,0,0,0-2.21,2.18v7.29a2.21,2.21,0,0,0,4.42,0v-7.29A2.2,2.2,0,0,0,1055.21,6395.13Z" transform="translate(-1053 -6382)"/>
</svg>
