<svg xmlns="http://www.w3.org/2000/svg" width="20.031" height="20.031" viewBox="0 0 20.031 20.031">
  <defs>
    <style>
      .cls-1 {
        fill: #fff;
        fill-rule: evenodd;
      }
    </style>
  </defs>
  <path id="https:_www.flaticon.com_free-icon_phone-call_597177_term_call_page_1_position_2" data-name="https://www.flaticon.com/free-icon/phone-call_597177?term=call&amp;page=1&amp;position=2" class="cls-1" d="M329.475,31.7l-2.8-2.795a1.86,1.86,0,0,0-3.1.7,1.9,1.9,0,0,1-2.2,1.2,8.622,8.622,0,0,1-5.194-5.191,1.809,1.809,0,0,1,1.2-2.2,1.858,1.858,0,0,0,.7-3.095l-2.8-2.795a2,2,0,0,0-2.7,0l-1.9,1.9c-1.9,2,.2,7.287,4.894,11.979s9.989,6.888,11.986,4.891l1.9-1.9A1.993,1.993,0,0,0,329.475,31.7Z" transform="translate(-310 -17)"/>
</svg>
