<svg xmlns="http://www.w3.org/2000/svg" width="23" height="17" viewBox="0 0 23 17">
  <defs>
    <style>
      .cls-1 {
        fill: #fff;
        fill-rule: evenodd;
      }
    </style>
  </defs>
  <path id="https:_www.flaticon.com_free-icon_envelope_482947_term_message_page_1_position_2" data-name="https://www.flaticon.com/free-icon/envelope_482947?term=message&amp;page=1&amp;position=2" class="cls-1" d="M527.48,20.379c3.157,2.634,8.7,7.269,10.324,8.715a0.971,0.971,0,0,0,1.391,0c1.629-1.447,7.168-6.082,10.325-8.717a0.468,0.468,0,0,0,.067-0.652,1.914,1.914,0,0,0-1.5-.727H528.917a1.911,1.911,0,0,0-1.5.728A0.468,0.468,0,0,0,527.48,20.379Zm22.242,1.427a0.482,0.482,0,0,0-.511.068c-3.5,2.925-7.968,6.673-9.374,7.922a1.962,1.962,0,0,1-2.675,0c-1.5-1.33-6.515-5.534-9.373-7.921a0.485,0.485,0,0,0-.511-0.068,0.473,0.473,0,0,0-.278.429V34.111A1.905,1.905,0,0,0,528.917,36h19.166A1.905,1.905,0,0,0,550,34.111V22.235A0.472,0.472,0,0,0,549.722,21.807Z" transform="translate(-527 -19)"/>
</svg>
