<svg xmlns="http://www.w3.org/2000/svg" width="20.6" height="16.719" viewBox="0 0 20.6 16.719">
  <defs>
    <style>
      .cls-1 {
        fill: #fff;
        fill-rule: evenodd;
      }
    </style>
  </defs>
  <path id="https:_www.flaticon.com_free-icon_twitter_733635_term_twitter_page_1_position_2" data-name="https://www.flaticon.com/free-icon/twitter_733635?term=twitter&amp;page=1&amp;position=2" class="cls-1" d="M1365.23,19.256a8.911,8.911,0,0,1-2.44.667,4.169,4.169,0,0,0,1.86-2.335,8.484,8.484,0,0,1-2.68,1.022,4.226,4.226,0,0,0-7.31,2.888,4.32,4.32,0,0,0,.1.963,11.931,11.931,0,0,1-8.7-4.418,4.226,4.226,0,0,0,1.29,5.645,4.157,4.157,0,0,1-1.9-.52v0.046a4.239,4.239,0,0,0,3.38,4.15,4.2,4.2,0,0,1-1.11.139,3.753,3.753,0,0,1-.8-0.072,4.268,4.268,0,0,0,3.95,2.942,8.492,8.492,0,0,1-5.24,1.8,7.923,7.923,0,0,1-1.01-.058,12.021,12.021,0,0,0,18.5-10.124c0-.186,0-0.367-0.01-0.546A8.5,8.5,0,0,0,1365.23,19.256Z" transform="translate(-1344.62 -17.281)"/>
</svg>
