<svg xmlns="http://www.w3.org/2000/svg" viewBox="0 0 112.78 119.2"><defs><style>.cls-1{fill:#fff;}</style></defs><title>Escrow0</title><g id="Layer_2" data-name="Layer 2"><g id="Layer_1-2" data-name="Layer 1"><path class="cls-1" d="M56.43,119.2h-1c-.5-.5-56.9-15.5-55.4-99.3V18.7l7.7-11,1.5-.2c1-.2,47.2-7.5,47.2-7.5s46.4,7.2,47.4,7.5l1.2.2,7.7,11v1.2c1,43.4-14,68.1-26.7,81.1C72.23,115.2,57.73,119.2,56.43,119.2ZM7.83,21.4c-1,71.4,41.7,87.6,48.7,89.8,7.2-2.2,49.6-18.5,48.7-90.1l-4.7-6.7c-5.2-1.2-25.7-6.2-43.9-6.7-18.2.5-38.4,5.5-43.9,6.7Z"/><path class="cls-1" d="M37.23,52.1h41.9v8.2H37.23Zm0,20.7h41.9V81H37.23Zm0-41.4h41.9v8.2H37.23Z"/><path class="cls-1" d="M37,63.6a7.7,7.7,0,0,1,0-15.4h19.7V42.5h-20A13.19,13.19,0,0,0,23.53,56a13.38,13.38,0,0,0,13.2,13.5h20V63.6Z"/></g></g></svg>